<?xml version="1.0" encoding="UTF-8"?>
<svg version="1.1" xmlns="http://www.w3.org/2000/svg" width="612" height="408">
<path d="M0 0 C201.96 0 403.92 0 612 0 C612 134.64 612 269.28 612 408 C410.04 408 208.08 408 0 408 C0 273.36 0 138.72 0 0 Z " fill="#FEFEFE" transform="translate(0,0)"/>
<path d="M0 0 C0.65693848 0.14453613 1.31387695 0.28907227 1.99072266 0.43798828 C11.75349474 2.66251091 20.81657256 6.08660763 30 10 C31.74216797 10.72123047 31.74216797 10.72123047 33.51953125 11.45703125 C49.21187095 18.4137924 62.27056736 28.85804714 74.58251953 40.64550781 C75.79370912 41.80287602 77.01855337 42.94592609 78.24609375 44.0859375 C92.18736013 57.38203461 102.10230441 74.58726159 110 92 C110 92.66 110 93.32 110 94 C106.57458284 92.85819428 106.12231287 92.14801848 104.0625 89.3125 C96.44292961 79.21213925 88.100996 69.78656619 79 61 C77.82244141 59.80503906 77.82244141 59.80503906 76.62109375 58.5859375 C51.57033043 33.87117548 17.93380577 19.57088997 -17.1875 18.625 C-45.02157227 19.39076993 -69.18448427 29.2809884 -89 49 C-104.43766249 65.38965167 -112.64954598 86.81571759 -112.28125 109.30078125 C-111.58918477 125.95533096 -105.00201191 142.5575412 -92.765625 154.109375 C-90.5768194 155.87551469 -88.35335904 157.46174756 -86 159 C-85.38769531 159.433125 -84.77539062 159.86625 -84.14453125 160.3125 C-77.2591677 164.54061237 -68.83019319 164.00186699 -61.15625 162.41015625 C-53.29355684 159.77712474 -48.4724319 154.13591143 -44.3046875 147.1640625 C-41.36214291 140.02795136 -41.9333999 130.93560626 -44.4375 123.6875 C-49.51292188 112.96678431 -59.45803938 105.01768378 -70 100 C-70 99.34 -70 98.68 -70 98 C-48.69963995 96.50231843 -31.95317702 105.53846173 -15.8125 118.796875 C-3.94128434 129.61499895 4.05566772 145.87014929 5.203125 161.82421875 C5.40712609 174.28528518 2.25292499 185.86031927 -6 195.4375 C-6.47767822 195.99808105 -6.95535645 196.55866211 -7.44750977 197.13623047 C-12.01924056 202.3258435 -17.23416668 206.20595085 -23 210 C-23.63679687 210.51304687 -24.27359375 211.02609375 -24.9296875 211.5546875 C-27.54957125 213.38366295 -30.19540355 214.38466656 -33.1875 215.5 C-34.78658203 216.10328125 -34.78658203 216.10328125 -36.41796875 216.71875 C-37.60003906 217.1415625 -38.78210938 217.564375 -40 218 C-41.04728271 218.37862183 -41.04728271 218.37862183 -42.11572266 218.76489258 C-64.9648083 226.75437842 -92.19699773 226.64847081 -114.33984375 216.40234375 C-128.16688156 209.11320047 -138.10704572 199.8203874 -147 187 C-147.68320313 186.0409375 -148.36640625 185.081875 -149.0703125 184.09375 C-151.15659041 180.74894818 -152.6505766 177.37212837 -154 173.6875 C-154.25418701 173.00034912 -154.50837402 172.31319824 -154.77026367 171.60522461 C-166.47167705 138.89672408 -163.94102566 104.78977238 -149.375 73.5 C-134.8141047 43.29275589 -108.88760743 17.60336564 -77 6 C-70.07443863 3.73493715 -63.05062179 1.83108322 -56 0 C-55.31019043 -0.18997559 -54.62038086 -0.37995117 -53.90966797 -0.57568359 C-36.49810487 -5.24372065 -17.41788466 -3.8446544 0 0 Z " fill="#120FE1" transform="translate(329,65)"/>
<path d="M0 0 C1.26070312 0.34675781 2.52140625 0.69351563 3.8203125 1.05078125 C9.02789841 2.55946665 13.38536354 4.13357053 18 7 C20.19130534 7.69579454 20.19130534 7.69579454 22 8 C22 8.66 22 9.32 22 10 C22.84949219 10.24363281 23.69898438 10.48726562 24.57421875 10.73828125 C28.32898038 12.12116381 31.49733997 13.99329336 34.8125 16.1875 C35.73434082 16.79078125 35.73434082 16.79078125 36.67480469 17.40625 C62.99763767 34.81662772 81.74075268 57.67977223 88.16015625 88.91015625 C92.65139744 113.81528037 84.2892525 138.42540113 70.45751953 158.96630859 C66.5145797 164.4679315 61.8077137 169.25821312 57 174 C55.78376953 175.23169922 55.78376953 175.23169922 54.54296875 176.48828125 C43.57207929 187.02251839 29.94944769 193.37024398 16 199 C15.03449219 199.40089844 14.06898438 199.80179688 13.07421875 200.21484375 C-9.39492203 209.03606198 -37.40129255 210.4213292 -61 206 C-61.77827148 205.8546582 -62.55654297 205.70931641 -63.35839844 205.55957031 C-91.24371306 200.12144551 -114.38274741 187.48271687 -135 168 C-135.58652344 167.46117187 -136.17304688 166.92234375 -136.77734375 166.3671875 C-138 165 -138 165 -138 163 C-134.81112731 164.50585655 -131.9405092 166.30716356 -129 168.25 C-109.31953403 180.79759867 -90.32356725 185.0583257 -67.25 185.3125 C-66.22084473 185.33030518 -65.19168945 185.34811035 -64.13134766 185.36645508 C-43.14412064 185.34463883 -23.12190611 175.14262604 -8 161 C5.03291297 147.69204179 13.19144495 129.23399029 13.5625 110.5625 C13.2914554 87.78959047 -0.54270673 68.06878673 -16.08300781 52.54345703 C-25.19205988 43.7651806 -35.66178529 36.58660476 -47 31 C-47 30.34 -47 29.68 -47 29 C-40.3508546 29.56360062 -34.31651511 30.81726092 -27.9375 32.75 C-27.09123047 32.98976562 -26.24496094 33.22953125 -25.37304688 33.4765625 C-19.59901319 35.20387559 -14.94687292 37.58544952 -10 41 C-8.91976562 41.70640625 -7.83953125 42.4128125 -6.7265625 43.140625 C12.43314276 56.17115502 25.91610369 71.78359145 30.86645508 94.92211914 C35.10311167 117.46490861 30.20681745 137.93483171 18.01953125 157.1171875 C9.07289314 169.88821057 -0.56908395 179.20140358 -14 187 C-2.68756032 182.84262371 8.06821889 176.00947763 17 168 C17.6703125 167.43410156 18.340625 166.86820313 19.03125 166.28515625 C31.00163776 155.43105465 41.14436214 136.7018736 42.16113281 120.41967773 C42.66228895 103.4365081 42.66228895 103.4365081 39 87 C38.63648438 85.92878906 38.27296875 84.85757813 37.8984375 83.75390625 C28.90005231 58.64550887 9.5890801 39.27110804 -14.25 27.8125 C-22.27000689 24.06638417 -30.50190045 21.42060782 -39 19 C-40.485 18.505 -40.485 18.505 -42 18 C-46.28654915 17.79324767 -50.57576263 17.81420326 -54.86669922 17.81469727 C-56.96473267 17.81253632 -59.0622176 17.7944448 -61.16015625 17.77539062 C-68.14696436 17.74706068 -74.8152932 18.02926323 -81.66796875 19.5690918 C-84.15874876 20.02933329 -86.47271513 20.07098169 -89 20 C-78.86505076 6.1489027 -61.4637047 -0.08997737 -45.2890625 -3.5859375 C-29.92808871 -5.5197418 -14.81512578 -4.27006965 0 0 Z " fill="#1410E1" transform="translate(335,118)"/>
<path d="M0 0 C4.35971917 2.3699401 7.73359726 5.30891881 11.3125 8.6875 C11.88718018 9.22640869 12.46186035 9.76531738 13.05395508 10.32055664 C14.19493741 11.39411073 15.33360076 12.47013576 16.46972656 13.54882812 C17.72990994 14.7438712 19.00031434 15.92812671 20.2734375 17.109375 C34.19743126 30.40820985 44.10624246 47.59594414 52 65 C52 65.66 52 66.32 52 67 C48.57458284 65.85819428 48.12231287 65.14801848 46.0625 62.3125 C38.44292961 52.21213925 30.100996 42.78656619 21 34 C19.82244141 32.80503906 19.82244141 32.80503906 18.62109375 31.5859375 C9.91417839 22.9958064 0.60503586 16.05754094 -10 10 C-9.34 9.67 -8.68 9.34 -8 9 C-7.67 8.34 -7.34 7.68 -7 7 C-6.01 6.67 -5.02 6.34 -4 6 C-1.63493157 3.99878825 -1.0106678 3.03200339 0 0 Z " fill="#1C19DE" transform="translate(387,92)"/>
<path d="M0 0 C6.70059875 0.56233539 12.76387751 1.85283319 19.1875 3.8125 C20.48204102 4.1847168 20.48204102 4.1847168 21.80273438 4.56445312 C26.84838027 6.08162132 30.78890901 7.8227284 35 11 C34.360625 11.268125 33.72125 11.53625 33.0625 11.8125 C30.66868314 12.88667752 30.66868314 12.88667752 30 16 C30.27769908 18.3406065 30.60539977 20.67624308 31 23 C29.91666667 22.1875 28.83333333 21.375 27.75 20.5625 C27.01910156 20.01722656 26.28820312 19.47195312 25.53515625 18.91015625 C23.74013332 17.55766594 21.95741212 16.18877698 20.18359375 14.80859375 C13.74346707 9.84625363 7.2679109 5.64826236 0 2 C0 1.34 0 0.68 0 0 Z " fill="#1E19DE" transform="translate(288,147)"/>
<path d="M0 0 C10.5227903 9.95249922 17.07785025 23.95167005 23 37 C23 37.66 23 38.32 23 39 C19.57458284 37.85819428 19.12231287 37.14801848 17.0625 34.3125 C13.35421003 29.37865578 9.38531114 24.71712192 5.35180664 20.05004883 C2.19559333 16.39764411 -0.92020899 12.71718366 -4 9 C-3.34 8.443125 -2.68 7.88625 -2 7.3125 C0.25492211 5.15937692 0.25492211 5.15937692 0.25 2.25 C0.1675 1.5075 0.085 0.765 0 0 Z " fill="#2321DB" transform="translate(416,120)"/>
<path d="M0 0 C3.18887269 1.50585655 6.0594908 3.30716356 9 5.25 C14.78375176 8.97314384 20.79572368 12.04403589 27 15 C26.01 15.99 25.02 16.98 24 18 C25.72226496 21.24849977 25.72226496 21.24849977 29 22 C29.33 22.99 29.66 23.98 30 25 C19.6467711 21.39805697 10.84513042 12.41342495 3 5 C2.41347656 4.46117187 1.82695312 3.92234375 1.22265625 3.3671875 C0 2 0 2 0 0 Z " fill="#2623D7" transform="translate(197,281)"/>
<path d="M0 0 C0.66 0 1.32 0 2 0 C2 0.99 2 1.98 2 3 C6.34184202 2.81535634 6.34184202 2.81535634 10 1 C11.99964982 0.91241997 14.0023611 0.89303424 16.00390625 0.90234375 C17.21884766 0.90556641 18.43378906 0.90878906 19.68554688 0.91210938 C20.96494141 0.92048828 22.24433594 0.92886719 23.5625 0.9375 C24.84576172 0.94201172 26.12902344 0.94652344 27.45117188 0.95117188 C30.63416022 0.96300455 33.81705762 0.97948932 37 1 C37 1.66 37 2.32 37 3 C36.26998779 3.01981934 35.53997559 3.03963867 34.7878418 3.06005859 C31.42075166 3.15640565 28.05419141 3.26563266 24.6875 3.375 C23.53958984 3.4059375 22.39167969 3.436875 21.20898438 3.46875 C14.79194367 3.68689303 8.6961553 4.23733459 2.41333008 5.58447266 C-0.10314643 6.01775976 -2.45161465 6.06988104 -5 6 C-3.38405168 3.95880212 -1.7143618 1.95927063 0 0 Z " fill="#3838D2" transform="translate(251,132)"/>
<path d="M0 0 C2.79643618 3.42455876 4.74004289 7.18129771 6.6875 11.125 C7.16799805 12.07439453 7.16799805 12.07439453 7.65820312 13.04296875 C10 17.74653518 10 17.74653518 10 20 C6.49643817 18.83214606 5.85338253 17.8402805 3.6875 14.9375 C2.77871094 13.7309375 2.77871094 13.7309375 1.8515625 12.5 C1.24054688 11.675 0.62953125 10.85 0 10 C-1.14570217 8.47906786 -2.29152429 6.95822606 -3.4375 5.4375 C-4.29250133 4.29228934 -5.14700232 3.14670384 -6 2 C-4.02 1.34 -2.04 0.68 0 0 Z " fill="#2422DB" transform="translate(429,139)"/>
<path d="M0 0 C7.65606218 -0.19355213 14.66258031 -0.3479743 22 2 C22 2.33 22 2.66 22 3 C17.71 3 13.42 3 9 3 C11.927027 6.90270266 12.67574907 7.59754024 17 9 C16.67 10.32 16.34 11.64 16 13 C15.43152344 12.54109375 14.86304688 12.0821875 14.27734375 11.609375 C9.68430283 7.95947938 5.17996274 4.75529933 0 2 C0 1.34 0 0.68 0 0 Z " fill="#3B3CD1" transform="translate(259,163)"/>
<path d="M0 0 C6.34046126 0.05661126 12.1151417 1.78796106 18 4 C15.24921116 4.91692961 13.64051087 5.10886083 10.8125 5.0625 C8.9253125 5.0315625 8.9253125 5.0315625 7 5 C7.33 6.65 7.66 8.3 8 10 C7.34 10 6.68 10 6 10 C5.67 8.68 5.34 7.36 5 6 C4.38125 5.9175 3.7625 5.835 3.125 5.75 C1 5 1 5 -0.25 2.9375 C-0.62125 1.9784375 -0.62125 1.9784375 -1 1 C-0.67 0.67 -0.34 0.34 0 0 Z " fill="#1E1ADA" transform="translate(221,297)"/>
<path d="M0 0 C5.852795 0.51482919 11.3297637 1.45357192 17 3 C15.68 3.99 14.36 4.98 13 6 C13.33 6.99 13.66 7.98 14 9 C9.02790438 7.23570801 4.56561939 4.6060834 0 2 C0 1.34 0 0.68 0 0 Z " fill="#312DD6" transform="translate(288,147)"/>
<path d="M0 0 C0.66 1.32 1.32 2.64 2 4 C-0.59748082 5.5333805 -3.20187896 7.05179668 -5.8125 8.5625 C-6.55048828 9.00013672 -7.28847656 9.43777344 -8.04882812 9.88867188 C-8.76103516 10.29794922 -9.47324219 10.70722656 -10.20703125 11.12890625 C-11.18893433 11.70233765 -11.18893433 11.70233765 -12.19067383 12.28735352 C-14 13 -14 13 -17 12 C-16.27554687 11.55269531 -15.55109375 11.10539062 -14.8046875 10.64453125 C-9.5678878 7.36978584 -4.61175196 4.11318418 0 0 Z " fill="#B8B8F2" transform="translate(337,293)"/>
<path d="M0 0 C3.10742423 1.46818668 5.90471739 3.20025 8.75 5.125 C9.94882813 5.93324219 9.94882813 5.93324219 11.171875 6.7578125 C11.77515625 7.16773438 12.3784375 7.57765625 13 8 C12.01 8.495 12.01 8.495 11 9 C10.67 9.99 10.34 10.98 10 12 C8.32737283 10.38113585 6.66204463 8.7547271 5 7.125 C4.071875 6.22007812 3.14375 5.31515625 2.1875 4.3828125 C0 2 0 2 0 0 Z " fill="#5755CF" transform="translate(197,281)"/>
<path d="M0 0 C0 3 0 3 -2.125 5.4375 C-4.98379967 7.98556058 -7.64662281 10.14494028 -11 12 C-13.18359375 11.6015625 -13.18359375 11.6015625 -15 11 C-14.08476562 10.37351562 -13.16953125 9.74703125 -12.2265625 9.1015625 C-11.02596568 8.27615218 -9.82544901 7.45062527 -8.625 6.625 C-7.72007812 6.00625 -7.72007812 6.00625 -6.796875 5.375 C-4.36217249 3.6977605 -2.09532229 2.09532229 0 0 Z " fill="#3B36D5" transform="translate(352,286)"/>
<path d="M0 0 C1.32 0 2.64 0 4 0 C4.6875 2.25 4.6875 2.25 5 5 C3.6875 7.3125 3.6875 7.3125 2 9 C1.34 9 0.68 9 0 9 C-1.125 2.25 -1.125 2.25 0 0 Z " fill="#100DE2" transform="translate(412,120)"/>
<path d="M0 0 C0.66 0 1.32 0 2 0 C2 0.99 2 1.98 2 3 C4.97 3 7.94 3 11 3 C11 3.33 11 3.66 11 4 C9.27192682 4.33895656 7.54248026 4.67091525 5.8125 5 C4.36810547 5.2784375 4.36810547 5.2784375 2.89453125 5.5625 C0.2065794 5.96877612 -2.28771019 6.07933572 -5 6 C-3.38405168 3.95880212 -1.7143618 1.95927063 0 0 Z " fill="#4B48D0" transform="translate(251,132)"/>
<path d="M0 0 C0 0.99 0 1.98 0 3 C0.99 3 1.98 3 3 3 C3.33 3.99 3.66 4.98 4 6 C2.41531323 5.54636829 0.83230076 5.08688548 -0.75 4.625 C-1.63171875 4.36976563 -2.5134375 4.11453125 -3.421875 3.8515625 C-5.76080572 3.0790066 -7.83442562 2.16374324 -10 1 C-3.375 0 -3.375 0 0 0 Z " fill="#3F3AD5" transform="translate(310,136)"/>
<path d="M0 0 C0.33 0 0.66 0 1 0 C1 2.64 1 5.28 1 8 C0.01 8.33 -0.98 8.66 -2 9 C-2.33 10.65 -2.66 12.3 -3 14 C-3.99 14.33 -4.98 14.66 -6 15 C-4 10 -2 5 0 0 Z " fill="#4944D6" transform="translate(373,254)"/>
<path d="M0 0 C1.07421875 1.8515625 1.07421875 1.8515625 2 4 C0.8125 6.375 0.8125 6.375 -1 9 C-2.0150089 10.99242489 -3.01873444 12.99074195 -4 15 C-4.66 15 -5.32 15 -6 15 C-4.40109514 9.80355921 -2.25861997 4.93387858 0 0 Z " fill="#403BD6" transform="translate(345,250)"/>
<path d="M0 0 C2.9375 0.375 2.9375 0.375 6 1 C6.33 1.66 6.66 2.32 7 3 C6.01 3 5.02 3 4 3 C4.99 3.99 5.98 4.98 7 6 C6.67 6.66 6.34 7.32 6 8 C1.3125 4.38671875 1.3125 4.38671875 0 3 C0 2.01 0 1.02 0 0 Z " fill="#342FD6" transform="translate(208,290)"/>
<path d="M0 0 C0.66 0 1.32 0 2 0 C3 3 3 3 2.22265625 4.82421875 C1.1484375 6.54947917 0.07421875 8.27473958 -1 10 C-1.33 9.34 -1.66 8.68 -2 8 C-2.66 7.67 -3.32 7.34 -4 7 C-3.34 5.68 -2.68 4.36 -2 3 C-1.34 3 -0.68 3 0 3 C0 2.01 0 1.02 0 0 Z " fill="#1E1ADB" transform="translate(354,266)"/>
<path d="M0 0 C3.63 0.33 7.26 0.66 11 1 C11 1.33 11 1.66 11 2 C5.72 2.66 0.44 3.32 -5 4 C-4.67 3.34 -4.34 2.68 -4 2 C-2.68 2 -1.36 2 0 2 C0 1.34 0 0.68 0 0 Z " fill="#403FD6" transform="translate(294,82)"/>
<path d="M0 0 C1.8125 1.3125 1.8125 1.3125 2.5625 3.4375 C2.68625 4.365625 2.68625 4.365625 2.8125 5.3125 C-0.96295388 4.22181332 -3.65793472 3.4041909 -6.1875 0.3125 C-3.74242066 -0.56074262 -2.51049678 -0.78901327 0 0 Z " fill="#3531DA" transform="translate(235.1875,306.6875)"/>
<path d="M0 0 C2.64465038 3.1254959 3.84414715 6.08788267 5 10 C0.60841671 8.5361389 0.12052567 6.02168662 -2 2 C-1.34 2 -0.68 2 0 2 C0 1.34 0 0.68 0 0 Z " fill="#5C59CC" transform="translate(434,149)"/>
<path d="M0 0 C0.66 0.33 1.32 0.66 2 1 C-0.97 4.96 -0.97 4.96 -4 9 C-4.33 8.34 -4.66 7.68 -5 7 C-5.66 6.67 -6.32 6.34 -7 6 C-4.69 4.02 -2.38 2.04 0 0 Z " fill="#3330D9" transform="translate(220,89)"/>
<path d="M0 0 C0.75 1.6875 0.75 1.6875 1 4 C-1.13381449 7.2769294 -2.25018012 8.75006004 -6 10 C-4.34832443 6.4213696 -2.21713508 3.25179812 0 0 Z " fill="#3E39D5" transform="translate(196,112)"/>
<path d="M0 0 C0.928125 0.20625 1.85625 0.4125 2.8125 0.625 C0.19051226 2.77877564 -1.83154172 4.02572174 -5.1875 4.625 C-5.5175 3.635 -5.8475 2.645 -6.1875 1.625 C-3.1875 -0.375 -3.1875 -0.375 0 0 Z " fill="#221ED6" transform="translate(368.1875,306.375)"/>
<path d="M0 0 C4 3 4 3 4.390625 5.69921875 C4.34421875 6.68535156 4.2978125 7.67148438 4.25 8.6875 C4.21390625 9.68136719 4.1778125 10.67523438 4.140625 11.69921875 C4.09421875 12.45847656 4.0478125 13.21773437 4 14 C3.67 14 3.34 14 3 14 C2.01 9.38 1.02 4.76 0 0 Z " fill="#332FD4" transform="translate(374,203)"/>
<path d="M0 0 C3.48331435 3.01887244 4.79157144 5.56909529 6 10 C5.01 10 4.02 10 3 10 C2.67 8.35 2.34 6.7 2 5 C1.01 4.67 0.02 4.34 -1 4 C-0.67 2.68 -0.34 1.36 0 0 Z " fill="#3C39D5" transform="translate(323,198)"/>
<path d="M0 0 C1.21386936 3.64160808 0.6674695 4.33165469 -0.9375 7.6875 C-1.31777344 8.49574219 -1.69804687 9.30398437 -2.08984375 10.13671875 C-2.39019531 10.75160156 -2.69054687 11.36648437 -3 12 C-4.53445094 8.93109813 -3.54984289 6.29905734 -3 3 C-2.01 2.67 -1.02 2.34 0 2 C0 1.34 0 0.68 0 0 Z " fill="#4846D4" transform="translate(331,242)"/>
<path d="M0 0 C1.65 1.65 3.3 3.3 5 5 C4.401875 5.144375 3.80375 5.28875 3.1875 5.4375 C1.43849596 5.8872439 -0.28677023 6.42892341 -2 7 C-2 6.01 -2 5.02 -2 4 C-1.34 4 -0.68 4 0 4 C0 2.68 0 1.36 0 0 Z " fill="#2825D3" transform="translate(402,163)"/>
<path d="M0 0 C0.99 0 1.98 0 3 0 C2.34 3.63 1.68 7.26 1 11 C0.67 11 0.34 11 0 11 C-0.19491452 9.54263913 -0.38069358 8.08405407 -0.5625 6.625 C-0.66691406 5.81289062 -0.77132812 5.00078125 -0.87890625 4.1640625 C-1 2 -1 2 0 0 Z " fill="#3534D2" transform="translate(217,146)"/>
<path d="M0 0 C2.31 0.33 4.62 0.66 7 1 C0.60869565 5.26086957 0.60869565 5.26086957 -3.3125 4.625 C-3.869375 4.41875 -4.42625 4.2125 -5 4 C-4.360625 3.71125 -3.72125 3.4225 -3.0625 3.125 C-0.84793921 2.17176549 -0.84793921 2.17176549 0 0 Z " fill="#4441D8" transform="translate(341,316)"/>
<path d="M0 0 C-3.28463659 2.18975773 -6.20696275 2.99806563 -10 4 C-10 3.01 -10 2.02 -10 1 C-6.52674819 -0.1577506 -3.63932552 -0.06866652 0 0 Z " fill="#2522D6" transform="translate(297,279)"/>
<path d="M0 0 C0.33 0.99 0.66 1.98 1 3 C0.21625 3.61875 -0.5675 4.2375 -1.375 4.875 C-3.96837647 6.89858661 -3.96837647 6.89858661 -6 9 C-6.66 8.34 -7.32 7.68 -8 7 C-5.36 4.69 -2.72 2.38 0 0 Z " fill="#4C49D8" transform="translate(281,218)"/>
<path d="M0 0 C2.50037734 2.17424117 3.43628586 3.73045798 4 7 C3.01 6.67 2.02 6.34 1 6 C1 5.34 1 4.68 1 4 C-0.32 3.67 -1.64 3.34 -3 3 C-2.01 2.67 -1.02 2.34 0 2 C0 1.34 0 0.68 0 0 Z " fill="#2F2ED6" transform="translate(355,188)"/>
<path d="M0 0 C2.31 0.33 4.62 0.66 7 1 C7.33 2.98 7.66 4.96 8 7 C6.66382648 6.02471263 5.3311249 5.04466681 4 4.0625 C3.2575 3.51722656 2.515 2.97195312 1.75 2.41015625 C1.1725 1.94480469 0.595 1.47945312 0 1 C0 0.67 0 0.34 0 0 Z " fill="#3832D5" transform="translate(311,163)"/>
<path d="M0 0 C0.66 0 1.32 0 2 0 C2.66 0.99 3.32 1.98 4 3 C4.99 3.33 5.98 3.66 7 4 C7.33 4.99 7.66 5.98 8 7 C4.06326356 5.68775452 1.77280706 4.08089673 -1 1 C-0.67 0.67 -0.34 0.34 0 0 Z " fill="#4341D2" transform="translate(219,299)"/>
<path d="M0 0 C1.98 0 3.96 0 6 0 C5.67 1.32 5.34 2.64 5 4 C2.525 3.01 2.525 3.01 0 2 C0 1.34 0 0.68 0 0 Z " fill="#1814DD" transform="translate(212,293)"/>
<path d="M0 0 C2.31 0.66 4.62 1.32 7 2 C7.33 3.65 7.66 5.3 8 7 C6.66382648 6.02471263 5.3311249 5.04466681 4 4.0625 C3.2575 3.51722656 2.515 2.97195312 1.75 2.41015625 C1.1725 1.94480469 0.595 1.47945312 0 1 C0 0.67 0 0.34 0 0 Z " fill="#4545D3" transform="translate(268,169)"/>
<path d="M0 0 C2.97 0.33 5.94 0.66 9 1 C7.515 2.485 7.515 2.485 6 4 C4.02 3.34 2.04 2.68 0 2 C0 1.34 0 0.68 0 0 Z " fill="#6260CD" transform="translate(288,147)"/>
<path d="M0 0 C0.625 1.875 0.625 1.875 1 4 C0.34 4.66 -0.32 5.32 -1 6 C-3.125 5.625 -3.125 5.625 -5 5 C-3.35 3.35 -1.7 1.7 0 0 Z " fill="#423FD7" transform="translate(358,280)"/>
<path d="M0 0 C0.33 0.66 0.66 1.32 1 2 C-0.4375 4.625 -0.4375 4.625 -2 7 C-2.99 6.67 -3.98 6.34 -5 6 C-3.35 4.02 -1.7 2.04 0 0 Z " fill="#4643DC" transform="translate(204,103)"/>
<path d="M0 0 C0 0.66 0 1.32 0 2 C-4.15267176 5.11450382 -4.15267176 5.11450382 -7.3125 4.6875 C-7.869375 4.460625 -8.42625 4.23375 -9 4 C-2.25 0 -2.25 0 0 0 Z " fill="#4A46D9" transform="translate(243,76)"/>
<path d="M0 0 C-5.75 4 -5.75 4 -8 4 C-8 3.01 -8 2.02 -8 1 C-4.93251126 -0.86240388 -3.40254489 -1.2151946 0 0 Z " fill="#3532D7" transform="translate(308,274)"/>
<path d="M0 0 C2 2 2 2 2 6 C0.0625 5.625 0.0625 5.625 -2 5 C-2.33 4.34 -2.66 3.68 -3 3 C-2.01 2.01 -1.02 1.02 0 0 Z " fill="#2F2AD7" transform="translate(432,145)"/>
<path d="M0 0 C4.875 1.75 4.875 1.75 6 4 C4.68 4.99 3.36 5.98 2 7 C1.34 4.69 0.68 2.38 0 0 Z " fill="#241FDC" transform="translate(368,134)"/>
</svg>
